<?xml version="1.0" encoding="UTF-8"?>
<svg version="1.1" xmlns="http://www.w3.org/2000/svg" width="6740" height="3930">
<path d="M0 0 C2224.2 0 4448.4 0 6740 0 C6740 1296.9 6740 2593.8 6740 3930 C4515.8 3930 2291.6 3930 0 3930 C0 2633.1 0 1336.2 0 0 Z " fill="#003334" transform="translate(0,0)"/>
<path d="M0 0 C2224.2 0 4448.4 0 6740 0 C6740 1296.9 6740 2593.8 6740 3930 C5691 3930 5691 3930 5678 3918 C5674.90517977 3915.28070871 5674.90517977 3915.28070871 5671.79833984 3912.57519531 C5661.42829249 3903.49190106 5651.63242261 3893.72912531 5641.875 3884 C5640.99884033 3883.12843262 5640.12268066 3882.25686523 5639.2199707 3881.35888672 C5634.82153302 3876.94988095 5630.56030427 3872.48602883 5626.52587891 3867.74023438 C5624.92210261 3865.91115958 5623.23660575 3864.20276916 5621.5 3862.5 C5618.50765625 3859.55399785 5615.74675828 3856.47016993 5613.0078125 3853.2890625 C5611.05671325 3851.06465752 5609.05891092 3848.88902402 5607.04638672 3846.72021484 C5602.31137002 3841.61433459 5597.80483809 3836.39672734 5593.4375 3830.96875 C5590.57073197 3827.47717355 5587.60206682 3824.08490453 5584.625 3820.6875 C5579.01966141 3814.26473307 5573.69408274 3807.67283426 5568.48925781 3800.92333984 C5566.85442613 3798.81199493 5565.205516 3796.71213969 5563.5546875 3794.61328125 C5556.91658593 3786.15872997 5550.44417432 3777.62952443 5544.28027344 3768.82324219 C5542.88549491 3766.83693288 5541.47878216 3764.85943518 5540.0703125 3762.8828125 C5533.53734317 3753.70196341 5527.14743305 3744.44363222 5521 3735 C5520.48211914 3734.20529297 5519.96423828 3733.41058594 5519.43066406 3732.59179688 C5479.9422509 3671.78010165 5445.21762932 3604.07564692 5428.49804688 3533.09179688 C5427.86842319 3530.44737742 5427.18429607 3527.81823823 5426.5 3525.1875 C5416.95101293 3486.55995908 5411.7941474 3446.79802942 5411.6875 3407 C5411.68307388 3405.5371608 5411.68307388 3405.5371608 5411.67855835 3404.04476929 C5411.66901953 3390.04420642 5412.27591208 3376.22960141 5413.8125 3362.3125 C5413.89527191 3361.5589624 5413.97804382 3360.8054248 5414.06332397 3360.02905273 C5423.83506652 3273.2826129 5458.08097469 3192.52091424 5509 3122 C5509.5760498 3121.19723633 5510.15209961 3120.39447266 5510.74560547 3119.56738281 C5518.59758219 3108.64689302 5526.82850472 3098.13271994 5535.47363281 3087.83056641 C5537.57669824 3085.30836797 5539.62982497 3082.74677909 5541.6875 3080.1875 C5545.68590099 3075.28815577 5549.91807573 3070.64500879 5554.2265625 3066.01953125 C5556.3261908 3063.75624079 5558.36505566 3061.44696012 5560.390625 3059.1171875 C5570.13078754 3047.94464811 5580.53812849 3037.36730001 5591 3026.875 C5591.87156738 3025.99884033 5592.74313477 3025.12268066 5593.64111328 3024.2199707 C5597.99711854 3019.8744065 5602.41646892 3015.68055855 5607.08349609 3011.67138672 C5610.42279613 3008.75917678 5613.60337403 3005.67893507 5616.8125 3002.625 C5622.21431485 2997.51903762 5627.68871977 2992.66266152 5633.50390625 2988.03125 C5636.02723331 2985.97783831 5638.41932273 2983.82811943 5640.8125 2981.625 C5645.1877959 2977.64244719 5649.74729266 2973.9818193 5654.41870117 2970.35888672 C5658.21503119 2967.41231514 5661.95789857 2964.41218125 5665.66870117 2961.35864258 C5674.73425806 2953.90413686 5684.06460271 2946.83909189 5693.49609375 2939.85546875 C5695.89749552 2938.07595886 5698.29301332 2936.28879865 5700.6875 2934.5 C5716.77630516 2922.51915554 5733.21113866 2910.98039273 5750 2900 C5750.77150391 2899.49210937 5751.54300781 2898.98421875 5752.33789062 2898.4609375 C5793.07988736 2871.64037581 5834.99493665 2846.62060241 5878.00683594 2823.60986328 C5880.95346409 2822.02502919 5883.88788302 2820.41952325 5886.8203125 2818.80859375 C5919.71958321 2800.83246146 5953.45949068 2783.93455923 5987.63574219 2768.52392578 C5991.45590829 2766.79348479 5995.26348657 2765.03687709 5999.0703125 2763.27734375 C6080.98544309 2725.46533394 6165.07016608 2692.42883892 6309.2771759 2642.21681213 C6315.1453753 2640.28657473 6321.00513741 2638.33161685 6326.86328125 2636.37109375 C6328.74446546 2635.74194131 6330.62565035 2635.11279091 6332.50683594 2634.48364258 C6335.23217092 2633.57206726 6337.95741036 2632.66021392 6340.68225098 2631.74716187 C6371.08925842 2621.56235052 6371.08925842 2621.56235052 6386.1171875 2617.48046875 C6394.15468033 2615.29474522 6402.03579932 2612.75314269 6409.91778564 2610.06494141 C6413.78505457 2608.74658587 6417.65768241 2607.44424675 6421.53125 2606.14453125 C6422.31650055 2605.88104889 6423.1017511 2605.61756653 6423.91079712 2605.34609985 C6433.41445256 2602.17251436 6442.98605657 2599.21624487 6452.57080078 2596.2980957 C6458.58296407 2594.45181286 6464.45401403 2592.50158481 6470.26367188 2590.09472656 C6473.68483984 2588.72601518 6477.14864628 2587.48858847 6480.62109375 2586.2578125 C6482.04736871 2585.75131736 6483.47363808 2585.24480651 6484.89990234 2584.73828125 C6485.63827332 2584.47611816 6486.37664429 2584.21395508 6487.13739014 2583.94384766 C6549.50056757 2561.74232481 6615.25046237 2536.23773315 6667 2494 C6667.56235352 2493.54447754 6668.12470703 2493.08895508 6668.70410156 2492.61962891 C6688.53823274 2476.46273472 6707.85895213 2455.50603555 6711 2429 C6712.99658104 2403.87943638 6702.56611621 2385.31902096 6686.86328125 2366.4296875 C6682.59459578 2361.48170238 6678.01364101 2357.17803417 6673 2353 C6672.16210938 2352.27425781 6671.32421875 2351.54851563 6670.4609375 2350.80078125 C6656.47681868 2338.83915895 6641.4411417 2328.67409813 6625.52685547 2319.46630859 C6623.07187632 2318.0417091 6620.63096682 2316.59533618 6618.19140625 2315.14453125 C6556.96071227 2279.06598378 6488.74114416 2255.22917115 6421.65942383 2232.63256836 C6420.63237839 2232.28650543 6419.60533295 2231.9404425 6418.54716492 2231.58389282 C6416.63954018 2230.9418805 6414.73146829 2230.30119437 6412.8228302 2229.66220093 C6408.3392598 2228.15524019 6403.88469438 2226.59636304 6399.44946289 2224.95214844 C6394.4359943 2223.11730606 6389.3836552 2221.59876636 6384.23828125 2220.18359375 C6373.81990205 2217.26084704 6363.47042741 2214.13611392 6353.12585449 2210.96334839 C6336.45322673 2205.85181066 6319.77717848 2200.75970847 6303 2196 C6302.28408691 2195.79681152 6301.56817383 2195.59362305 6300.83056641 2195.38427734 C6293.65232405 2193.35560722 6286.45588571 2191.39433153 6279.25715637 2189.43978882 C6277.10939684 2188.8565864 6274.96179693 2188.27279878 6272.81420898 2187.68896484 C6269.98100063 2186.91877457 6267.14711269 2186.15116215 6264.31274414 2185.38525391 C6258.12895696 2183.70883019 6251.96044101 2182.00189472 6245.82298279 2180.16221619 C6235.58448093 2177.09406266 6225.2535859 2174.48543596 6214.875 2171.9375 C6211.45525918 2171.09434254 6208.03604751 2170.24906538 6204.6171875 2169.40234375 C6203.77926666 2169.1949205 6202.94134583 2168.98749725 6202.07803345 2168.77378845 C6197.39913466 2167.61096423 6192.73356448 2166.41046904 6188.078125 2165.15625 C6177.01998068 2162.17802457 6165.91356091 2159.38505767 6154.81445312 2156.56420898 C6152.19860269 2155.89932843 6149.58304827 2155.23330317 6146.96777344 2154.56616211 C6126.48288233 2149.34087174 6105.96629752 2144.32030228 6085.3454895 2139.66131592 C6072.20053735 2136.68908076 6059.09439357 2133.58453905 6046.00674438 2130.37008667 C6035.27234166 2127.73875846 6024.50693094 2125.31327055 6013.68188477 2123.07763672 C6007.90202254 2121.87612678 6002.16869428 2120.55904321 5996.44921875 2119.09765625 C5987.86847239 2116.91225847 5979.22340626 2115.07331239 5970.5592041 2113.25210571 C5957.08637751 2110.41818006 5943.64249517 2107.50556798 5930.25 2104.3125 C5919.43015005 2101.73891723 5908.57692773 2099.4700182 5897.66235352 2097.33691406 C5887.80150618 2095.39598815 5877.99302635 2093.26366583 5868.1875 2091.0625 C5845.57640842 2085.99312226 5822.94620109 2081.07156678 5800.17456055 2076.77050781 C5792.37744966 2075.28974363 5784.62466029 2073.65045782 5776.87451172 2071.94262695 C5761.10493757 2068.47159925 5745.29336648 2065.18405696 5729.43226624 2062.15783691 C5713.68397601 2059.15234121 5697.96751496 2055.99371201 5682.25390625 2052.8125 C5681.10082348 2052.57914381 5679.94774071 2052.34578762 5678.75971603 2052.10536003 C5667.9328928 2049.91395237 5657.10673128 2047.71928505 5646.28100586 2045.52246094 C5620.95329592 2040.38381948 5595.63186642 2035.24652914 5570.21003723 2030.5919342 C5555.46970095 2027.87380086 5540.77131743 2024.97738611 5526.10742188 2021.87475586 C5518.59201382 2020.29836822 5511.0544251 2018.87612082 5503.5 2017.5 C5495.05830321 2015.96182573 5486.64447753 2014.34070328 5478.25 2012.5625 C5465.93334879 2009.9554004 5453.57649372 2007.56950368 5441.21305847 2005.19665527 C5436.37575135 2004.26733821 5431.54085506 2003.32616246 5426.70703125 2002.37890625 C5409.48579668 1999.00677435 5392.24999826 1995.7219224 5375 1992.5 C5349.93865001 1987.8172641 5324.87756857 1983.13180847 5299.9362793 1977.84057617 C5291.0690462 1975.97647219 5282.16315944 1974.32915098 5273.25378418 1972.68185425 C5262.4496626 1970.68141712 5251.68972997 1968.51292728 5240.93701172 1966.25024414 C5231.9592262 1964.37371476 5222.95688246 1962.66102733 5213.9375 1961 C5202.65514466 1958.92204174 5191.43374471 1956.63351069 5180.22631836 1954.1796875 C5172.34218436 1952.46640346 5164.43946171 1950.93360181 5156.5 1949.5 C5146.38816968 1947.66984409 5136.34285496 1945.62259674 5126.30224609 1943.43701172 C5116.25859249 1941.25492065 5106.19541896 1939.17944267 5096.125 1937.125 C5058.67444849 1929.47454562 5021.27492608 1921.56368144 4983.97265625 1913.21826172 C4978.00984097 1911.88528049 4972.04312413 1910.57259452 4966.0703125 1909.28515625 C4950.86086321 1906.00244616 4935.73329685 1902.51498473 4920.65429688 1898.66894531 C4916.63313402 1897.65551759 4912.59893179 1896.70045207 4908.5625 1895.75 C4898.65668545 1893.40953299 4888.76463689 1891.0129523 4878.87472534 1888.60632324 C4877.06784612 1888.16683105 4875.26082309 1887.72792957 4873.4536438 1887.28967285 C4846.06491286 1880.64584812 4846.06491286 1880.64584812 4835.1875 1877.1875 C4827.52546399 1874.77888967 4819.75950366 1872.75988796 4811.9909668 1870.7253418 C4710.89711412 1843.9681552 4710.89711412 1843.9681552 4690 1815 C4687.94573981 1811.24874226 4687.34690086 1808.24514439 4688 1804 C4694.14918713 1790.7574592 4708.56543945 1784.89764863 4721.51255798 1780.06147766 C4737.0250245 1774.53534066 4752.67952706 1770.40808302 4768.75 1766.875 C4769.89288483 1766.619534 4771.03576965 1766.36406799 4772.21328735 1766.1008606 C4790.72630419 1761.96534537 4809.26596961 1758.43549552 4828.02197266 1755.61303711 C4833.28106158 1754.81427339 4838.52452683 1753.92048673 4843.76786804 1753.02488708 C4849.57435962 1752.04172073 4855.39725474 1751.27275942 4861.24609375 1750.5859375 C4864.88913812 1750.14632814 4868.52462922 1749.66198956 4872.16015625 1749.1640625 C4902.33479071 1745.03438821 4932.58110072 1741.50161111 4962.90625 1738.6796875 C4968.63405509 1738.14270577 4974.34926771 1737.52554378 4980.06567383 1736.87963867 C4993.29099887 1735.39058064 5006.51915567 1734.32494896 5019.7918396 1733.38189697 C5034.57753766 1732.32659639 5049.3142339 1730.94835093 5064.05175781 1729.35766602 C5073.88036967 1728.3127169 5083.67570474 1727.6586297 5093.54931641 1727.21484375 C5098.57101365 1726.98482835 5103.56191567 1726.57192903 5108.5625 1726.0625 C5127.86435005 1724.21878257 5147.20224057 1722.96502475 5166.55709839 1721.83239746 C5176.38647985 1721.24964904 5186.20391694 1720.55379601 5196.02223396 1719.80949402 C5219.60826014 1718.0301249 5243.21227379 1716.5882676 5266.82358551 1715.19174576 C5270.12240056 1714.99645385 5273.42116159 1714.80027099 5276.71990967 1714.60385132 C5324.12987117 1711.78203354 5371.54124414 1709.17052899 5418.99003887 1707.09250164 C5421.04677078 1707.00235949 5423.10347421 1706.91159151 5425.16017151 1706.82066345 C5427.66233428 1706.71034306 5430.16455753 1706.60138099 5432.66685486 1706.49415588 C5439.9411446 1706.17284217 5447.19975119 1705.72722481 5454.46394348 1705.22888184 C5459.32920604 1704.91396316 5464.19442599 1704.71064501 5469.06640625 1704.53515625 C5471.12304768 1704.45640132 5473.17968828 1704.37762448 5475.23632812 1704.29882812 C5478.35584423 1704.18183126 5481.47539068 1704.065719 5484.5949707 1703.95043945 C5497.47017518 1703.47127022 5510.3352866 1702.88897252 5523.2000103 1702.18710136 C5546.21899886 1700.93290987 5569.24879522 1700.01930671 5592.28417969 1699.125 C5600.78909886 1698.79441098 5609.29386675 1698.45994296 5617.79861069 1698.12487984 C5619.91222568 1698.04161918 5622.02584517 1697.95847278 5624.13946915 1697.8754406 C5639.29007257 1697.279569 5654.43838407 1696.64134031 5669.5859375 1695.97265625 C5689.90380057 1695.07675445 5710.22402299 1694.27165202 5730.54813385 1693.53148651 C5733.18589719 1693.43527889 5735.82363249 1693.33832803 5738.46136475 1693.24127197 C5760.67677014 1692.42564009 5782.8893939 1691.65770978 5805.11767578 1691.29077148 C5805.89860596 1691.27695938 5806.67953613 1691.26314728 5807.48413086 1691.24891663 C5809.47129359 1691.21478524 5811.45854504 1691.18591571 5813.44580078 1691.15771484 C5817.3931977 1691.05798269 5821.32264515 1690.78404608 5825.26196289 1690.5168457 C5833.96879893 1689.94085033 5842.67253796 1689.7406139 5851.39540672 1689.57248497 C5856.14482162 1689.47994972 5860.89394217 1689.37435893 5865.64306641 1689.26806641 C5866.60554259 1689.24655738 5867.56801878 1689.22504835 5868.55966091 1689.20288754 C5877.618977 1688.99521037 5886.6745651 1688.70857995 5895.73046875 1688.38671875 C5896.50000004 1688.35945709 5897.26953133 1688.33219543 5898.06238174 1688.30410767 C5902.07997727 1688.16129169 5906.09750063 1688.01655148 5910.11499023 1687.87078857 C5919.34066951 1687.53650329 5928.56680276 1687.21505852 5937.79296875 1686.89453125 C5938.79277645 1686.85976685 5939.79258415 1686.82500244 5940.82268906 1686.78918457 C5968.75700858 1685.82033024 5996.69440514 1684.94632133 6024.63187295 1684.07399517 C6029.52700823 1683.92113026 6034.42212359 1683.7676402 6039.31723022 1683.61386108 C6047.29477016 1683.36335523 6055.27236271 1683.11457673 6063.25 1682.8671875 C6064.52898918 1682.82750351 6065.80797836 1682.78781952 6067.12572479 1682.74693298 C6081.32956822 1682.30775469 6095.5331303 1681.89946072 6109.73983574 1681.56590462 C6133.05396729 1681.01552552 6156.3502021 1680.0487013 6179.65066147 1679.09257126 C6186.20493553 1678.82417335 6192.75932928 1678.5587261 6199.3137207 1678.29321289 C6200.00039365 1678.26539321 6200.6870666 1678.23757353 6201.39454782 1678.20891082 C6204.24359689 1678.09348658 6207.09264597 1677.97806281 6209.94169658 1677.8626768 C6214.42101554 1677.68124141 6218.90031987 1677.49944919 6223.37961549 1677.31743854 C6247.58916359 1676.33394659 6271.79954299 1675.37224469 6296.01023811 1674.41743797 C6303.66355369 1674.11557172 6311.31684014 1673.8129757 6318.97010803 1673.50990295 C6320.6082827 1673.44503283 6320.6082827 1673.44503283 6322.2795518 1673.37885219 C6326.70638416 1673.20353521 6331.1332153 1673.02818737 6335.56004345 1672.85276425 C6347.52716532 1672.37854093 6359.49432556 1671.90536047 6371.4616394 1671.43600464 C6414.78981016 1669.73595771 6458.11222879 1667.9737604 6501.421875 1665.84765625 C6502.27192981 1665.80597596 6503.12198463 1665.76429567 6503.99779868 1665.72135234 C6528.17522203 1664.53436219 6552.34425131 1663.23311321 6576.5078125 1661.7890625 C6587.31330233 1661.14587176 6598.12106908 1660.54865149 6608.9296875 1659.9609375 C6609.75481527 1659.91602928 6610.57994305 1659.87112106 6611.43007469 1659.82485199 C6619.68420764 1659.37574486 6627.93844127 1658.9285458 6636.19284821 1658.48450279 C6639.26489981 1658.31895156 6642.33688756 1658.15223581 6645.40886307 1657.98527908 C6646.83531381 1657.90804235 6648.26179347 1657.83133749 6649.6883049 1657.75522995 C6658.46967852 1657.28663447 6667.23526791 1656.71680442 6676 1656 C6679.32582574 1647.76057413 6682.07542923 1639.67725549 6684 1631 C6684.16918945 1630.32517578 6684.33837891 1629.65035156 6684.51269531 1628.95507812 C6689.50788553 1608.3488015 6684.7041229 1587.90758837 6674 1570 C6671.53323464 1566.14659138 6668.88885115 1562.54616144 6666 1559 C6665.00419922 1557.75863281 6665.00419922 1557.75863281 6663.98828125 1556.4921875 C6657.83274543 1549.2329789 6650.65442818 1543.57665245 6643 1538 C6642.43071777 1537.58250488 6641.86143555 1537.16500977 6641.27490234 1536.73486328 C6607.79330886 1512.5008417 6565.76737194 1498.90177205 6526.02075195 1488.78076172 C6523.62415297 1488.16132233 6521.2338874 1487.52565236 6518.84448242 1486.87939453 C6507.31822363 1483.77516183 6495.74718412 1481.06274967 6484.0625 1478.625 C6483.15246216 1478.43401733 6482.24242432 1478.24303467 6481.30480957 1478.04626465 C6462.47192922 1474.11478602 6443.53717905 1471.02767122 6424.51860046 1468.15100098 C6419.25491868 1467.35321045 6413.99960333 1466.5184235 6408.75 1465.6328125 C6378.33309711 1460.51715378 6347.69694101 1456.9550488 6317 1454 C6315.53236448 1453.8562104 6314.06475482 1453.71215665 6312.59716797 1453.56787109 C6221.98687067 1444.68284197 6131.07590233 1439.35010288 6030.62394333 1435.00920486 C6028.56205957 1434.92062617 6026.50018248 1434.83189191 6024.43831253 1434.7429924 C6002.68870006 1433.80541938 5980.94204792 1432.88096604 5959.17810059 1432.34786987 C5952.05927211 1432.16436112 5944.9708287 1431.83543452 5937.86680889 1431.36439514 C5931.40972248 1430.94339369 5924.95617246 1430.73539877 5918.48828125 1430.5703125 C5916.56146022 1430.51688039 5914.63463945 1430.46343818 5912.70782852 1430.40964317 C5910.66061745 1430.35277566 5908.61337867 1430.29701028 5906.56613159 1430.24145508 C5879.84855947 1429.51334138 5853.14314884 1428.57652116 5826.4375 1427.5 C5801.98200923 1426.51469744 5777.52775422 1425.64081565 5753.0625 1424.9375 C5732.95456163 1424.35856467 5712.85812244 1423.67350893 5692.76293945 1422.74755859 C5680.69333483 1422.19283524 5668.62304346 1421.72412283 5656.5480957 1421.30151367 C5626.38404045 1420.24549584 5596.24697175 1418.84336352 5566.11360168 1417.12081146 C5564.6830592 1417.03904301 5563.25250673 1416.95744911 5561.82194519 1416.87601471 C5475.14603377 1411.94067544 5387.92745415 1406.16247421 5277.95074463 1388.34313965 C5276.07126889 1388.01253633 5274.19068157 1387.68827146 5272.31005859 1387.36425781 C5255.77882582 1384.51380785 5239.51815419 1380.88973789 5223.24853516 1376.80810547 C5220.37182531 1376.09249525 5217.49125093 1375.40053921 5214.60546875 1374.72265625 C5174.74893463 1365.27486034 5130.2538451 1351.007163 5101 1321 C5100.23300781 1320.23042969 5099.46601563 1319.46085937 5098.67578125 1318.66796875 C5087.14125428 1306.47432596 5081.20724328 1291.97740008 5081.4375 1275.25 C5081.44845703 1274.11183838 5081.45941406 1272.97367676 5081.47070312 1271.80102539 C5081.71146242 1262.38399295 5083.20698576 1254.62811388 5087 1246 C5087.3000293 1245.29552734 5087.60005859 1244.59105469 5087.90917969 1243.86523438 C5091.8357484 1234.74726952 5096.30472694 1226.15402531 5102 1218 C5102.62648437 1217.10023437 5103.25296875 1216.20046875 5103.8984375 1215.2734375 C5110.65552042 1205.79215514 5118.06206742 1196.90886448 5125.90625 1188.3125 C5127.68904386 1186.34344409 5129.41118447 1184.34109798 5131.125 1182.3125 C5138.75555516 1173.55612522 5147.18487888 1165.15394138 5156.05859375 1157.66015625 C5158.53444997 1155.54297538 5160.91661268 1153.33218171 5163.3125 1151.125 C5168.19887998 1146.67311345 5173.23535543 1142.4669687 5178.38037109 1138.31933594 C5180.18984808 1136.84535137 5181.98033605 1135.35009746 5183.76953125 1133.8515625 C5193.80762731 1125.46390922 5204.12811231 1117.53523191 5214.64111328 1109.75341797 C5216.81066502 1108.1407373 5218.96868235 1106.51436065 5221.12109375 1104.87890625 C5289.27166061 1053.1359034 5363.96978392 1009.17954165 5450.9921875 960.36328125 C5455.87497255 957.63549914 5460.74041781 954.87841621 5465.6015625 952.11230469 C5477.87019244 945.13726749 5490.26652532 938.41807007 5502.71044922 931.76171875 C5507.02920973 929.44880678 5511.34164685 927.12425752 5515.65380859 924.79907227 C5519.9934885 922.45951313 5524.33540096 920.12411193 5528.67724609 917.78857422 C5530.90732486 916.58816591 5533.13680978 915.38665377 5535.36572266 914.18408203 C5550.08131861 906.24471087 5564.85318976 898.43560667 5579.73120117 890.80517578 C5586.47123347 887.34717927 5593.18966079 883.85259954 5599.88842773 880.31542969 C5609.04377916 875.49050969 5618.22844848 870.72543874 5627.4375 866.00390625 C5628.2462558 865.58906038 5629.0550116 865.17421452 5629.88827515 864.74679756 C5651.27098634 853.78661911 5672.7622934 843.0426512 5694.2578125 832.3059082 C5699.91800208 829.47868994 5705.57635529 826.64781769 5711.23420715 823.81592464 C5715.69335392 821.58452647 5720.15346919 819.35506962 5724.61386108 817.12616158 C5726.6996268 816.08360582 5728.7851101 815.0404848 5730.87026978 813.99671745 C5743.4443921 807.70404924 5756.06848869 801.53186342 5768.7677002 795.49537659 C5776.52133868 791.80739925 5784.22976607 788.0265373 5791.94152832 784.25201416 C5805.44080547 777.64600547 5818.95477206 771.07568827 5832.5234375 764.61328125 C5852.92457357 754.89362397 5873.23801339 744.9870488 5893.56813049 735.11991882 C5897.9274208 733.00450007 5902.28814433 730.89206698 5906.64985657 728.78164673 C5924.51536685 720.13644349 5942.32766776 711.39825363 5960.05810547 702.47900391 C5964.28518571 700.35388755 5968.51741107 698.23911696 5972.75 696.125 C5973.99482222 695.50266529 5975.23961816 694.88027798 5976.484375 694.2578125 C5977.31453125 693.84273437 5978.1446875 693.42765625 5979 693 C5976.56292834 690.28684192 5973.92485403 688.66858305 5970.7578125 686.8828125 C5969.70263428 686.28283447 5968.64745605 685.68285645 5967.56030273 685.06469727 C5965.85982788 684.10454712 5965.85982788 684.10454712 5964.125 683.125 C5961.74090011 681.76621926 5959.36008038 680.40177997 5956.98046875 679.03515625 C5956.38349686 678.6923613 5955.78652496 678.34956635 5955.17146301 677.99638367 C5946.30709171 672.8906229 5937.64346432 667.46878297 5929 662 C5927.98486328 661.35885254 5926.96972656 660.71770508 5925.92382812 660.05712891 C5890.05233804 637.36280991 5854.92825214 612.9184059 5823.51171875 584.265625 C5822.11871163 583.00910225 5820.71926057 581.75926282 5819.29516602 580.53808594 C5813.46193472 575.52661266 5808.00091352 570.18449253 5802.5625 564.75 C5801.67240234 563.87214844 5800.78230469 562.99429688 5799.86523438 562.08984375 C5794.53306456 556.76935875 5789.61093428 551.27772297 5784.92089844 545.38232422 C5783.24308882 543.30148205 5781.51044868 541.32803288 5779.6875 539.375 C5752.30363794 508.25121234 5734.8225763 467.4957789 5736.79296875 425.81494141 C5740.22174793 379.19486603 5773.28866904 339.84741683 5807.03515625 310.2734375 C5809.64584556 308.11871093 5812.31152363 306.05675788 5815 304 C5816.20513446 303.0233076 5817.40807932 302.04391012 5818.609375 301.0625 C5846.63925068 278.40591383 5878.22853934 259.82901256 5910 243 C5911.51787109 242.19079102 5911.51787109 242.19079102 5913.06640625 241.36523438 C5985.45374492 202.86227571 6062.96703542 174.12024876 6151.78851318 144.72717285 C6154.00233263 143.99923299 6156.21536094 143.26893151 6158.42822266 142.53808594 C6174.2765899 137.30802062 6190.13905156 132.2794653 6206.21313477 127.78076172 C6213.33653776 125.78296698 6220.39906214 123.65367154 6227.4375 121.375 C6237.89059494 117.99503665 6248.4206502 114.95750687 6259 112 C6260.95190432 111.45081006 6262.90372489 110.9013224 6264.85546875 110.3515625 C6270.10707338 108.87428527 6275.36127459 107.40649628 6280.61669922 105.94287109 C6282.92856529 105.29859149 6285.24007303 104.65302508 6287.55126953 104.00634766 C6301.20016174 100.18905185 6314.85542166 96.44493641 6328.62329102 93.07788086 C6335.7573292 91.33253254 6342.85258038 89.45382856 6349.94567871 87.5501709 C6387.23294542 77.56421148 6424.63682486 68.15855692 6462.28009033 59.60702515 C6472.60463767 57.260512 6482.90322408 54.83048929 6493.1875 52.3125 C6502.77295877 49.97125789 6512.37503013 47.81245204 6522.04345703 45.84301758 C6529.56862509 44.309509 6537.06791343 42.67641371 6544.5625 41 C6546.86457934 40.48565922 6549.16666263 39.97133608 6551.46875 39.45703125 C6552.57863281 39.20904785 6553.68851563 38.96106445 6554.83203125 38.70556641 C6572.39462896 34.79404457 6589.99804383 31.065553 6607.59326172 27.30419922 C6615.91873109 25.52364061 6624.24159998 23.73442871 6632.55419922 21.89453125 C6644.77376382 19.1936744 6657.053886 16.8267796 6669.34375 14.47265625 C6679.20232982 12.58293097 6689.0431498 10.60708163 6698.88378906 8.62646484 C6704.50494715 7.49642006 6710.1275806 6.37374914 6715.75 5.25 C6717.80729771 4.8385719 6719.86458982 4.42711578 6721.921875 4.015625 C6725.28125 3.34375 6728.640625 2.671875 6732 2 C4510.77 1.67 2289.54 1.34 1 1 C1 1297.57 1 2594.14 1 3930 C0.67 3930 0.34 3930 0 3930 C0 2633.1 0 1336.2 0 0 Z " fill="#65FDCA" transform="translate(0,0)"/>
<path d="M0 0 C2224.2 0 4448.4 0 6740 0 C6740 545.49 6740 1090.98 6740 1653 C6735.86252586 1653.68957902 6732.13807106 1654.18083923 6727.99462891 1654.38891602 C6726.83387848 1654.44890274 6725.67312805 1654.50888947 6724.47720337 1654.57069397 C6722.62063614 1654.66138405 6722.62063614 1654.66138405 6720.7265625 1654.75390625 C6718.80824112 1654.85166603 6718.80824112 1654.85166603 6716.85116577 1654.95140076 C6713.46806407 1655.1237685 6710.08476923 1655.29200236 6706.70141602 1655.45935059 C6703.24222297 1655.63119175 6699.78323056 1655.80697706 6696.32421875 1655.98242188 C6689.54965754 1656.32523593 6682.77490831 1656.66411935 6676 1657 C6676.20190445 1656.43374405 6676.4038089 1655.8674881 6676.61183167 1655.28407288 C6677.53762044 1652.68147322 6678.45829184 1650.07709049 6679.37890625 1647.47265625 C6679.69653931 1646.58211548 6680.01417236 1645.69157471 6680.34143066 1644.77404785 C6687.92061894 1623.27913459 6689.01473791 1600.66663935 6679.26391602 1579.6809082 C6675.59307546 1572.23757848 6671.24850606 1565.44271681 6666 1559 C6665.00419922 1557.75863281 6665.00419922 1557.75863281 6663.98828125 1556.4921875 C6657.83274543 1549.2329789 6650.65442818 1543.57665245 6643 1538 C6642.43071777 1537.58250488 6641.86143555 1537.16500977 6641.27490234 1536.73486328 C6607.79330886 1512.5008417 6565.76737194 1498.90177205 6526.02075195 1488.78076172 C6523.62415297 1488.16132233 6521.2338874 1487.52565236 6518.84448242 1486.87939453 C6507.31822363 1483.77516183 6495.74718412 1481.06274967 6484.0625 1478.625 C6483.15246216 1478.43401733 6482.24242432 1478.24303467 6481.30480957 1478.04626465 C6462.47192922 1474.11478602 6443.53717905 1471.02767122 6424.51860046 1468.15100098 C6419.25491868 1467.35321045 6413.99960333 1466.5184235 6408.75 1465.6328125 C6378.33309711 1460.51715378 6347.69694101 1456.9550488 6317 1454 C6315.53236448 1453.8562104 6314.06475482 1453.71215665 6312.59716797 1453.56787109 C6221.98687067 1444.68284197 6131.07590233 1439.35010288 6030.62394333 1435.00920486 C6028.56205957 1434.92062617 6026.50018248 1434.83189191 6024.43831253 1434.7429924 C6002.68870006 1433.80541938 5980.94204792 1432.88096604 5959.17810059 1432.34786987 C5952.05927211 1432.16436112 5944.9708287 1431.83543452 5937.86680889 1431.36439514 C5931.40972248 1430.94339369 5924.95617246 1430.73539877 5918.48828125 1430.5703125 C5916.56146022 1430.51688039 5914.63463945 1430.46343818 5912.70782852 1430.40964317 C5910.66061745 1430.35277566 5908.61337867 1430.29701028 5906.56613159 1430.24145508 C5879.84855947 1429.51334138 5853.14314884 1428.57652116 5826.4375 1427.5 C5801.98200923 1426.51469744 5777.52775422 1425.64081565 5753.0625 1424.9375 C5732.95456163 1424.35856467 5712.85812244 1423.67350893 5692.76293945 1422.74755859 C5680.69333483 1422.19283524 5668.62304346 1421.72412283 5656.5480957 1421.30151367 C5626.38404045 1420.24549584 5596.24697175 1418.84336352 5566.11360168 1417.12081146 C5564.6830592 1417.03904301 5563.25250673 1416.95744911 5561.82194519 1416.87601471 C5475.14603377 1411.94067544 5387.92745415 1406.16247421 5277.95074463 1388.34313965 C5276.07126889 1388.01253633 5274.19068157 1387.68827146 5272.31005859 1387.36425781 C5255.77882582 1384.51380785 5239.51815419 1380.88973789 5223.24853516 1376.80810547 C5220.37182531 1376.09249525 5217.49125093 1375.40053921 5214.60546875 1374.72265625 C5174.74893463 1365.27486034 5130.2538451 1351.007163 5101 1321 C5100.23300781 1320.23042969 5099.46601563 1319.46085937 5098.67578125 1318.66796875 C5087.14125428 1306.47432596 5081.20724328 1291.97740008 5081.4375 1275.25 C5081.44845703 1274.11183838 5081.45941406 1272.97367676 5081.47070312 1271.80102539 C5081.71146242 1262.38399295 5083.20698576 1254.62811388 5087 1246 C5087.3000293 1245.29552734 5087.60005859 1244.59105469 5087.90917969 1243.86523438 C5091.8357484 1234.74726952 5096.30472694 1226.15402531 5102 1218 C5102.62648437 1217.10023437 5103.25296875 1216.20046875 5103.8984375 1215.2734375 C5110.65552042 1205.79215514 5118.06206742 1196.90886448 5125.90625 1188.3125 C5127.68904386 1186.34344409 5129.41118447 1184.34109798 5131.125 1182.3125 C5138.75555516 1173.55612522 5147.18487888 1165.15394138 5156.05859375 1157.66015625 C5158.53444997 1155.54297538 5160.91661268 1153.33218171 5163.3125 1151.125 C5168.19887998 1146.67311345 5173.23535543 1142.4669687 5178.38037109 1138.31933594 C5180.18984808 1136.84535137 5181.98033605 1135.35009746 5183.76953125 1133.8515625 C5193.80762731 1125.46390922 5204.12811231 1117.53523191 5214.64111328 1109.75341797 C5216.81066502 1108.1407373 5218.96868235 1106.51436065 5221.12109375 1104.87890625 C5289.27166061 1053.1359034 5363.96978392 1009.17954165 5450.9921875 960.36328125 C5455.87497255 957.63549914 5460.74041781 954.87841621 5465.6015625 952.11230469 C5477.87019244 945.13726749 5490.26652532 938.41807007 5502.71044922 931.76171875 C5507.02920973 929.44880678 5511.34164685 927.12425752 5515.65380859 924.79907227 C5519.9934885 922.45951313 5524.33540096 920.12411193 5528.67724609 917.78857422 C5530.90732486 916.58816591 5533.13680978 915.38665377 5535.36572266 914.18408203 C5550.08131861 906.24471087 5564.85318976 898.43560667 5579.73120117 890.80517578 C5586.47123347 887.34717927 5593.18966079 883.85259954 5599.88842773 880.31542969 C5609.04377916 875.49050969 5618.22844848 870.72543874 5627.4375 866.00390625 C5628.2462558 865.58906038 5629.0550116 865.17421452 5629.88827515 864.74679756 C5651.27098634 853.78661911 5672.7622934 843.0426512 5694.2578125 832.3059082 C5699.91800208 829.47868994 5705.57635529 826.64781769 5711.23420715 823.81592464 C5715.69335392 821.58452647 5720.15346919 819.35506962 5724.61386108 817.12616158 C5726.6996268 816.08360582 5728.7851101 815.0404848 5730.87026978 813.99671745 C5743.4443921 807.70404924 5756.06848869 801.53186342 5768.7677002 795.49537659 C5776.52133868 791.80739925 5784.22976607 788.0265373 5791.94152832 784.25201416 C5805.44080547 777.64600547 5818.95477206 771.07568827 5832.5234375 764.61328125 C5852.92457357 754.89362397 5873.23801339 744.9870488 5893.56813049 735.11991882 C5897.9274208 733.00450007 5902.28814433 730.89206698 5906.64985657 728.78164673 C5924.51536685 720.13644349 5942.32766776 711.39825363 5960.05810547 702.47900391 C5964.28518571 700.35388755 5968.51741107 698.23911696 5972.75 696.125 C5973.99482222 695.50266529 5975.23961816 694.88027798 5976.484375 694.2578125 C5977.31453125 693.84273437 5978.1446875 693.42765625 5979 693 C5976.56292834 690.28684192 5973.92485403 688.66858305 5970.7578125 686.8828125 C5969.70263428 686.28283447 5968.64745605 685.68285645 5967.56030273 685.06469727 C5965.85982788 684.10454712 5965.85982788 684.10454712 5964.125 683.125 C5961.74090011 681.76621926 5959.36008038 680.40177997 5956.98046875 679.03515625 C5956.38349686 678.6923613 5955.78652496 678.34956635 5955.17146301 677.99638367 C5946.30709171 672.8906229 5937.64346432 667.46878297 5929 662 C5927.98486328 661.35885254 5926.96972656 660.71770508 5925.92382812 660.05712891 C5890.05233804 637.36280991 5854.92825214 612.9184059 5823.51171875 584.265625 C5822.11871163 583.00910225 5820.71926057 581.75926282 5819.29516602 580.53808594 C5813.46193472 575.52661266 5808.00091352 570.18449253 5802.5625 564.75 C5801.67240234 563.87214844 5800.78230469 562.99429688 5799.86523438 562.08984375 C5794.53306456 556.76935875 5789.61093428 551.27772297 5784.92089844 545.38232422 C5783.24308882 543.30148205 5781.51044868 541.32803288 5779.6875 539.375 C5752.30363794 508.25121234 5734.8225763 467.4957789 5736.79296875 425.81494141 C5740.22174793 379.19486603 5773.28866904 339.84741683 5807.03515625 310.2734375 C5809.64584556 308.11871093 5812.31152363 306.05675788 5815 304 C5816.20513446 303.0233076 5817.40807932 302.04391012 5818.609375 301.0625 C5846.63925068 278.40591383 5878.22853934 259.82901256 5910 243 C5911.51787109 242.19079102 5911.51787109 242.19079102 5913.06640625 241.36523438 C5985.45374492 202.86227571 6062.96703542 174.12024876 6151.78851318 144.72717285 C6154.00233263 143.99923299 6156.21536094 143.26893151 6158.42822266 142.53808594 C6174.2765899 137.30802062 6190.13905156 132.2794653 6206.21313477 127.78076172 C6213.33653776 125.78296698 6220.39906214 123.65367154 6227.4375 121.375 C6237.89059494 117.99503665 6248.4206502 114.95750687 6259 112 C6260.95190432 111.45081006 6262.90372489 110.9013224 6264.85546875 110.3515625 C6270.10707338 108.87428527 6275.36127459 107.40649628 6280.61669922 105.94287109 C6282.92856529 105.29859149 6285.24007303 104.65302508 6287.55126953 104.00634766 C6301.20016174 100.18905185 6314.85542166 96.44493641 6328.62329102 93.07788086 C6335.7573292 91.33253254 6342.85258038 89.45382856 6349.94567871 87.5501709 C6387.23294542 77.56421148 6424.63682486 68.15855692 6462.28009033 59.60702515 C6472.60463767 57.260512 6482.90322408 54.83048929 6493.1875 52.3125 C6502.77295877 49.97125789 6512.37503013 47.81245204 6522.04345703 45.84301758 C6529.56862509 44.309509 6537.06791343 42.67641371 6544.5625 41 C6546.86457934 40.48565922 6549.16666263 39.97133608 6551.46875 39.45703125 C6552.57863281 39.20904785 6553.68851563 38.96106445 6554.83203125 38.70556641 C6572.39462896 34.79404457 6589.99804383 31.065553 6607.59326172 27.30419922 C6615.91873109 25.52364061 6624.24159998 23.73442871 6632.55419922 21.89453125 C6644.77376382 19.1936744 6657.053886 16.8267796 6669.34375 14.47265625 C6679.20232982 12.58293097 6689.0431498 10.60708163 6698.88378906 8.62646484 C6704.50494715 7.49642006 6710.1275806 6.37374914 6715.75 5.25 C6717.80729771 4.8385719 6719.86458982 4.42711578 6721.921875 4.015625 C6725.28125 3.34375 6728.640625 2.671875 6732 2 C4510.77 1.67 2289.54 1.34 1 1 C1 1297.57 1 2594.14 1 3930 C0.67 3930 0.34 3930 0 3930 C0 2633.1 0 1336.2 0 0 Z " fill="#155E53" transform="translate(0,0)"/>
<path d="M0 0 C2224.2 0 4448.4 0 6740 0 C6740 332.31 6740 664.62 6740 1007 C6728.74701263 1003.62410379 6728.74701263 1003.62410379 6723.77075195 1001.86547852 C6722.64559677 1001.4690213 6721.52044159 1001.07256409 6720.3611908 1000.66409302 C6719.16563065 1000.23998138 6717.9700705 999.81586975 6716.73828125 999.37890625 C6715.4460219 998.92220236 6714.15370778 998.46565338 6712.86134338 998.00924683 C6709.39709792 996.78490745 6705.93407528 995.55714547 6702.4713974 994.32838058 C6700.29914685 993.5577629 6698.12657599 992.78805465 6695.95391846 992.01858521 C6670.28121322 982.92463899 6644.6758338 973.65304116 6619.09248352 964.31060791 C6610.38089103 961.13221324 6601.65338924 957.99981703 6592.91992188 954.88214111 C6500.32252035 921.81058513 6408.23893395 886.85575044 6248 821 C6247.24168884 820.67918457 6246.48337769 820.35836914 6245.7020874 820.02783203 C6207.8476528 804.00413709 6170.25797743 787.36596318 6133 770 C6131.90096344 769.48786957 6131.90096344 769.48786957 6130.77972412 768.96539307 C6095.85027246 752.67691313 6061.07573446 736.0159896 6027 718 C6026.41514832 717.69124939 6025.83029663 717.38249878 6025.22772217 717.06439209 C6009.66429101 708.8466765 5994.2167647 700.43808418 5978.9453125 691.6875 C5976.90497935 690.51850276 5974.86321357 689.3520038 5972.8203125 688.1875 C5958.02304362 679.7520023 5943.39395478 671.10716026 5929 662 C5927.98486328 661.35885254 5926.96972656 660.71770508 5925.92382812 660.05712891 C5890.05233804 637.36280991 5854.92825214 612.9184059 5823.51171875 584.265625 C5822.11871163 583.00910225 5820.71926057 581.75926282 5819.29516602 580.53808594 C5813.46193472 575.52661266 5808.00091352 570.18449253 5802.5625 564.75 C5801.67240234 563.87214844 5800.78230469 562.99429688 5799.86523438 562.08984375 C5794.53306456 556.76935875 5789.61093428 551.27772297 5784.92089844 545.38232422 C5783.24308882 543.30148205 5781.51044868 541.32803288 5779.6875 539.375 C5752.30363794 508.25121234 5734.8225763 467.4957789 5736.79296875 425.81494141 C5740.22174793 379.19486603 5773.28866904 339.84741683 5807.03515625 310.2734375 C5809.64584556 308.11871093 5812.31152363 306.05675788 5815 304 C5816.20513446 303.0233076 5817.40807932 302.04391012 5818.609375 301.0625 C5846.63925068 278.40591383 5878.22853934 259.82901256 5910 243 C5911.51787109 242.19079102 5911.51787109 242.19079102 5913.06640625 241.36523438 C5985.45374492 202.86227571 6062.96703542 174.12024876 6151.78851318 144.72717285 C6154.00233263 143.99923299 6156.21536094 143.26893151 6158.42822266 142.53808594 C6174.2765899 137.30802062 6190.13905156 132.2794653 6206.21313477 127.78076172 C6213.33653776 125.78296698 6220.39906214 123.65367154 6227.4375 121.375 C6237.89059494 117.99503665 6248.4206502 114.95750687 6259 112 C6260.95190432 111.45081006 6262.90372489 110.9013224 6264.85546875 110.3515625 C6270.10707338 108.87428527 6275.36127459 107.40649628 6280.61669922 105.94287109 C6282.92856529 105.29859149 6285.24007303 104.65302508 6287.55126953 104.00634766 C6301.20016174 100.18905185 6314.85542166 96.44493641 6328.62329102 93.07788086 C6335.7573292 91.33253254 6342.85258038 89.45382856 6349.94567871 87.5501709 C6387.23294542 77.56421148 6424.63682486 68.15855692 6462.28009033 59.60702515 C6472.60463767 57.260512 6482.90322408 54.83048929 6493.1875 52.3125 C6502.77295877 49.97125789 6512.37503013 47.81245204 6522.04345703 45.84301758 C6529.56862509 44.309509 6537.06791343 42.67641371 6544.5625 41 C6546.86457934 40.48565922 6549.16666263 39.97133608 6551.46875 39.45703125 C6552.57863281 39.20904785 6553.68851563 38.96106445 6554.83203125 38.70556641 C6572.39462896 34.79404457 6589.99804383 31.065553 6607.59326172 27.30419922 C6615.91873109 25.52364061 6624.24159998 23.73442871 6632.55419922 21.89453125 C6644.77376382 19.1936744 6657.053886 16.8267796 6669.34375 14.47265625 C6679.20232982 12.58293097 6689.0431498 10.60708163 6698.88378906 8.62646484 C6704.50494715 7.49642006 6710.1275806 6.37374914 6715.75 5.25 C6717.80729771 4.8385719 6719.86458982 4.42711578 6721.921875 4.015625 C6725.28125 3.34375 6728.640625 2.671875 6732 2 C4510.77 1.67 2289.54 1.34 1 1 C1 1297.57 1 2594.14 1 3930 C0.67 3930 0.34 3930 0 3930 C0 2633.1 0 1336.2 0 0 Z " fill="#67FDCB" transform="translate(0,0)"/>
<path d="M0 0 C9.64604862 1.96717271 19.20998118 4.22693629 28.77685547 6.54345703 C34.28394087 7.87462146 39.7932347 9.19019685 45.31640625 10.453125 C62.8472745 14.46618407 80.30108511 18.77017047 97.75 23.125 C98.96164825 23.42664062 100.17329651 23.72828125 101.42166138 24.0390625 C113.32652082 27.00522726 125.21475442 29.9960377 137.02200317 33.33197021 C143.52023542 35.16463134 150.06389291 36.78302006 156.625 38.375 C166.49234373 40.80330986 176.25322724 43.46488819 185.98852539 46.37451172 C193.47081209 48.59584462 200.99782554 50.5797571 208.5625 52.5 C217.90463977 54.87827741 227.15236753 57.45094216 236.34985352 60.33984375 C242.38968723 62.23303961 248.46045889 63.98917133 254.55078125 65.7109375 C267.19890577 69.29696684 279.75342837 73.17820443 292.3125 77.0625 C294.58652944 77.76386351 296.86061779 78.46503609 299.13476562 79.16601562 C304.50311753 80.82153353 309.87013723 82.48130704 315.23626709 84.14401245 C317.63576511 84.88718862 320.03582595 85.62851009 322.43603516 86.36938477 C408.06428518 112.87294254 497.485402 143.64491811 607.45703125 219.59765625 C609.31213454 221.35017318 611.15720503 222.98336647 613.125 224.59765625 C625.62778239 235.04495403 635.06606266 249.97073989 641 265 C641.35964844 265.90878906 641.71929688 266.81757813 642.08984375 267.75390625 C647.40032729 283.78324598 643.94511939 302.10544248 637 317 C631.27202231 327.36435308 623.96528256 336.28104506 616 345 C615.36191406 345.69867187 614.72382813 346.39734375 614.06640625 347.1171875 C609.14853897 352.23554338 603.57776145 356.62873441 598 361 C597.13157471 361.68304199 597.13157471 361.68304199 596.24560547 362.37988281 C579.24769224 375.66302031 560.83200317 386.54071072 542 397 C541.29762207 397.39251953 540.59524414 397.78503906 539.87158203 398.18945312 C495.62442377 422.77964056 447.14339619 440.31870833 399.41040039 456.79589844 C397.06011095 457.62570927 394.72182372 458.49004835 392.39453125 459.38232422 C386.61536093 461.56101517 380.72108483 463.39277844 374.83984375 465.2734375 C373.56435542 465.68296295 372.28893043 466.09268574 371.01356506 466.50259399 C367.66785753 467.57746185 364.32145785 468.65015705 360.97485352 469.722229 C355.65582152 471.4264545 350.3376752 473.13344113 345.01979446 474.84125519 C343.73330878 475.25432917 342.44676651 475.66722696 341.16016769 476.07994843 C334.32221761 478.27375704 327.49390298 480.48767556 320.69140625 482.7890625 C315.8303128 484.42599729 310.94584962 485.91641509 306.01953125 487.33984375 C295.15698984 490.48212525 284.42951522 494.03416235 273.6875 497.5625 C271.5002645 498.279359 269.31300835 498.996155 267.12573242 499.71289062 C261.72552342 501.48372309 256.32669735 503.25872532 250.92858887 505.03594971 C248.2732973 505.91003437 245.61765815 506.78305318 242.96191406 507.65576172 C166.33203046 532.85731461 90.60540421 560.80919664 16.23364258 592.06292725 C13.12230079 593.36821828 10.00643408 594.66244097 6.890625 595.95703125 C-22.20048199 608.09371614 -51.03256828 620.94098709 -79.54541016 634.37792969 C-82.56496971 635.7957356 -85.58945687 637.20184864 -88.61711121 638.60221863 C-106.47181908 646.86395881 -124.14528147 655.46834694 -141.75 664.25 C-143.24460754 664.99342148 -143.24460754 664.99342148 -144.76940918 665.75186157 C-157.35453717 672.01857141 -169.78176892 678.51586467 -182.08935547 685.31201172 C-186.81060552 687.91350672 -191.58436391 690.40432367 -196.375 692.875 C-204.79760449 697.26871617 -212.99195225 702.01309195 -221.17626953 706.83422852 C-226.98691255 710.25473381 -232.82870614 713.58811529 -238.75 716.8125 C-257.96958411 727.34335126 -276.56412181 739.16664565 -295 751 C-295.77118164 751.4935498 -296.54236328 751.98709961 -297.33691406 752.49560547 C-328.79286548 772.65852325 -359.53819809 794.01086669 -389 817 C-389.54398438 817.42313477 -390.08796875 817.84626953 -390.6484375 818.28222656 C-404.4687596 829.03755787 -418.04430168 840.06483978 -431.28662109 851.52490234 C-433.00197649 853.00170162 -434.72760487 854.46549594 -436.45703125 855.92578125 C-444.6018754 862.81669238 -452.43423014 869.98875601 -460.19482422 877.30810547 C-462.45099655 879.4226949 -464.73296327 881.50794922 -467.01660156 883.59277344 C-474.22829674 890.18269526 -481.14362176 897.04262765 -488 904 C-490.28943596 901.71056404 -490.35951647 900.97600691 -490.79223633 897.86791992 C-490.91257736 897.02360916 -491.0329184 896.1792984 -491.15690613 895.30940247 C-491.27657242 894.39647934 -491.39623871 893.48355621 -491.51953125 892.54296875 C-491.64801956 891.59544235 -491.77650787 890.64791595 -491.90888977 889.67167664 C-493.11189594 880.57065072 -494.04540522 871.46971869 -494.6875 862.3125 C-494.74970734 861.42813263 -494.81191467 860.54376526 -494.87600708 859.63259888 C-497.92497555 814.19394461 -498.2758031 767.28949801 -492.27856445 722.10791016 C-492.00430833 720.03260132 -491.7416414 717.95614191 -491.48242188 715.87890625 C-489.57793462 700.80731693 -487.07124734 685.87554233 -484 671 C-483.79149414 669.97567871 -483.58298828 668.95135742 -483.36816406 667.89599609 C-477.41980409 638.80601217 -470.28751982 610.21365951 -461 582 C-460.78881531 581.3565564 -460.57763062 580.71311279 -460.36004639 580.0501709 C-451.14817077 552.01791804 -440.08779905 524.91835179 -428 498 C-427.54093262 496.97213379 -427.08186523 495.94426758 -426.60888672 494.88525391 C-420.90610334 482.13938325 -414.89389636 469.65534147 -408.26367188 457.3671875 C-406.95903122 454.92325477 -405.68660838 452.4648037 -404.421875 450 C-397.42163599 436.38046102 -389.85089079 423.14577651 -382 410 C-381.41283203 409.01676758 -380.82566406 408.03353516 -380.22070312 407.02050781 C-359.68660353 372.74784766 -337.12355177 339.83815099 -313 308 C-312.47937988 307.3105127 -311.95875977 306.62102539 -311.42236328 305.91064453 C-303.95721953 296.03050748 -296.30456986 286.32891092 -288.44433594 276.76025391 C-287.14855163 275.18104416 -285.85902202 273.59670714 -284.5703125 272.01171875 C-279.28148882 265.50891241 -273.89320384 259.0946946 -268.45898438 252.71337891 C-267.47249956 251.55488653 -266.48684435 250.3956873 -265.50195312 249.23583984 C-259.52223614 242.19601215 -253.46983525 235.24954653 -247.2265625 228.44140625 C-245.30866793 226.33845167 -243.42623955 224.21330844 -241.5625 222.0625 C-237.3012143 217.1640127 -232.89587926 212.39817835 -228.49560547 207.625 C-226.97410563 205.97186534 -225.45739536 204.3144384 -223.94140625 202.65625 C-218.82458434 197.07086061 -213.67540781 191.56401754 -208.23046875 186.29296875 C-206.42403681 184.43591875 -204.75596376 182.55532576 -203.078125 180.5859375 C-198.11750599 174.87509528 -192.73125256 169.58201633 -187.37573242 164.24536133 C-185.56639067 162.44137915 -183.76245681 160.63211335 -181.95898438 158.82226562 C-176.70981263 153.57038164 -171.46047201 148.40378194 -165.80444336 143.58618164 C-162.36775138 140.56518478 -159.20255809 137.26510806 -156 134 C-151.47810329 129.389785 -146.8936214 124.96110749 -142 120.74609375 C-138.57839205 117.75886962 -135.29708658 114.62321678 -132 111.5 C-127.35645563 107.10133004 -122.66109104 102.79160833 -117.83056641 98.59863281 C-115.40915617 96.48401636 -113.04879549 94.30635229 -110.6875 92.125 C-107.06476095 88.81663086 -103.38307109 85.63987642 -99.5625 82.5625 C-95.56773299 79.34054709 -91.75470575 75.99319898 -88 72.5 C-83.44408223 68.26601137 -78.74728607 64.27068147 -73.90234375 60.37109375 C-70.61037897 57.68169588 -67.39975503 54.90851099 -64.1875 52.125 C-58.96679934 47.61293026 -53.62683138 43.29744681 -48.17382812 39.0703125 C-44.25437077 36.02038917 -40.45093788 32.86474781 -36.6875 29.625 C-31.02493293 24.76148309 -25.14499922 20.22292902 -19.18994141 15.72436523 C-13.99819447 11.7952995 -8.96478149 7.73035617 -4.00390625 3.51171875 C-2 2 -2 2 0 2 C0 1.34 0 0.68 0 0 Z " fill="#145E53" transform="translate(6068,2135)"/>
<path d="M0 0 C0.73878972 -0.00511234 1.47757944 -0.01022469 2.23875673 -0.01549195 C4.71510898 -0.02774575 7.19044082 -0.01149737 9.66675907 0.00460267 C11.46732596 0.00164366 13.26789067 -0.00307117 15.06844893 -0.00938332 C20.03526221 -0.0216777 25.00174883 -0.0089442 29.96853782 0.00772921 C35.36469874 0.02144914 40.76082605 0.01198606 46.15699351 0.00541925 C55.62055442 -0.00288361 65.08401484 0.00371282 74.54756409 0.01997209 C88.6195633 0.04408206 102.69149896 0.04531811 116.76351506 0.04180413 C140.43322741 0.03654448 164.10289388 0.04990045 187.77259308 0.07387376 C211.2147301 0.09755988 234.65684875 0.11297337 258.09899765 0.11728501 C259.19084639 0.11749148 259.19084639 0.11749148 260.30475268 0.11770213 C266.9529455 0.11895492 273.60113833 0.12010568 280.24933119 0.12113403 C296.77633283 0.12369168 313.30333404 0.12752901 329.8303352 0.13223481 C330.58295607 0.13244808 331.33557694 0.13266135 332.11100451 0.13288108 C368.72577275 0.14336833 405.34052886 0.16859905 441.95528847 0.19503617 C454.66215687 0.20420278 467.3690253 0.21330421 480.07589394 0.22213578 C480.86397027 0.22268358 481.65204659 0.22323138 482.46400402 0.22379577 C519.09658296 0.24916997 555.72916397 0.26407377 592.36174939 0.27627496 C594.73983175 0.27706722 597.11791412 0.27786399 599.49599648 0.27866168 C615.25561241 0.28394078 631.01522839 0.28903938 646.77484442 0.29401712 C678.13283125 0.30392324 709.49081768 0.31488998 740.8488039 0.32658531 C742.3421683 0.32714226 743.8355327 0.32769848 745.32889709 0.32825396 C828.173668 0.35907661 911.01842583 0.40921445 1043.39156777 0.49679399 C1043.39156777 0.82679399 1043.39156777 1.15679399 1043.39156777 1.49679399 C1042.72028847 1.61683793 1042.04900917 1.73688188 1041.35738808 1.86056352 C1026.00860725 4.61939917 1010.74332529 7.64547862 995.50484902 10.95773149 C979.54359041 14.42632476 963.53592694 17.68336506 947.51656777 20.87179399 C920.92664862 26.17149548 894.3884555 31.61663492 867.96139199 37.68087602 C862.21359848 38.99459 856.4595098 40.27956338 850.70406777 41.55929399 C849.60304726 41.80453813 848.50202675 42.04978227 847.36764199 42.30245805 C841.79936284 43.53767202 836.22701226 44.74865794 830.64547402 45.92257524 C817.36437861 48.7174983 804.15654573 51.71390785 790.9775663 54.95037675 C781.0547931 57.38683489 771.11568482 59.71460566 761.14156777 61.93429399 C743.49740613 65.87391257 725.94236157 70.16263126 708.39156777 74.49679399 C707.58243935 74.69633683 706.77331093 74.89587968 705.93966347 75.10146928 C701.05253212 76.30684101 696.16639105 77.51611281 691.2815519 78.73074174 C689.75992935 79.10897768 688.2381462 79.48656831 686.71618325 79.86343217 C678.39694681 81.92558585 670.14201448 84.11990235 661.90890175 86.50778031 C656.20172562 88.11253984 650.44672108 89.51891512 644.68966347 90.93115067 C627.43838662 95.16916774 610.38501485 99.90299323 593.34273964 104.91110063 C587.21494714 106.70259368 581.07379226 108.40397061 574.89156777 109.99679399 C559.8001105 113.89465188 544.86190758 118.34115195 530.02511269 123.11276078 C524.33611492 124.92523081 518.61264029 126.58223527 512.86739784 128.20675492 C446.60540749 147.01888947 380.9076874 169.80954165 317.39156777 196.49679399 C316.68536293 196.79327836 315.9791581 197.08976274 315.25155312 197.39523149 C295.4525011 205.71642907 275.81049453 214.31840156 256.39156777 223.49679399 C254.84300087 224.22479203 254.84300087 224.22479203 253.2631498 224.96749711 C215.79946967 242.60429861 179.11713017 262.35948279 145.39156777 286.49679399 C144.62570351 287.04480668 143.85983925 287.59281938 143.07076699 288.15743852 C132.80921417 295.53595422 122.87669913 303.14303751 113.39156777 311.49679399 C112.6168412 312.16066117 111.84211464 312.82452836 111.04391152 313.50851274 C105.08718659 318.70915251 99.45710639 324.25784199 93.82906777 329.80929399 C92.99029091 330.63534135 92.15151406 331.46138871 91.28731972 332.31246781 C85.94119212 337.67447343 81.56104849 342.90001165 77.86422402 349.53976274 C74.2848184 352.37275202 71.37154996 351.71653272 66.91964394 351.54049516 C61.00845226 351.46727508 55.21271674 352.41860788 49.37118202 353.23284745 C45.0971422 353.82540544 40.81861578 354.38366134 36.54000527 354.94210649 C35.12219765 355.12733117 35.12219765 355.12733117 33.67574745 355.31629777 C-0.54779884 359.74408853 -34.90628754 363.28129139 -69.23343223 366.80929399 C-70.41868492 366.93230882 -71.6039376 367.05532365 -72.82510704 367.1820662 C-86.77721311 368.62532447 -100.72234228 369.83556914 -114.71712059 370.78230119 C-121.13650607 371.22358344 -127.52446519 371.75805771 -133.91702598 372.48898149 C-147.46204796 374.00692841 -161.06879867 374.80708738 -174.67093223 375.62179399 C-175.40868637 375.66637616 -176.1464405 375.71095834 -176.90655082 375.75689149 C-203.85174419 377.37347589 -230.74291605 377.86211218 -257.73343223 377.80929399 C-258.6146336 377.80803765 -259.49583496 377.80678132 -260.40373939 377.80548692 C-284.25475287 377.76769498 -308.02558019 377.70578141 -331.73343223 374.80929399 C-332.42789451 374.72475968 -333.12235679 374.64022538 -333.83786339 374.55312943 C-352.91762465 372.19315442 -372.14262702 368.83573106 -389.60843223 360.49679399 C-391.08956505 359.80650102 -391.08956505 359.80650102 -392.60061973 359.10226274 C-403.42683547 353.65916535 -411.42435836 346.10233599 -416.70999473 335.23116899 C-420.79446911 322.80016 -416.54245605 309.14678142 -410.97488731 297.963835 C-400.78015324 278.38020522 -385.77080534 262.48928889 -370.29593223 246.99679399 C-369.77819237 246.47796647 -369.2604525 245.95913896 -368.72702354 245.4245894 C-362.86666073 239.56561931 -356.92423166 233.86808693 -350.60843223 228.49679399 C-349.44028369 227.47504822 -348.2735963 226.45162935 -347.10843223 225.42648149 C-332.72975328 212.85380048 -317.85200331 201.00051315 -302.60843223 189.49679399 C-301.81388633 188.89576859 -301.01934044 188.2947432 -300.20071739 187.67550492 C-272.30526218 166.58770561 -243.63472561 146.72877323 -214.49685997 127.40595841 C-211.22623219 125.23688782 -207.95827529 123.06402506 -204.696567 120.88155961 C-197.03141659 115.75334773 -189.32525195 110.70104273 -181.54593223 105.74679399 C-180.47721885 105.06487992 -179.40850548 104.38296586 -178.30740684 103.68038774 C-176.12136748 102.28587605 -173.93493055 100.8919874 -171.74808067 99.49874711 C-168.83706163 97.64257634 -165.92921987 95.78155406 -163.02249473 93.91866899 C-148.99044407 84.93769737 -134.8255244 76.18136876 -120.60843223 67.49679399 C-119.49726036 66.81745805 -118.38608848 66.13812211 -117.24124473 65.43820024 C-99.04263659 54.32149849 -80.73155504 43.3992918 -62.37662071 32.5429976 C-59.76291414 30.99651695 -57.15057501 29.44773097 -54.53811973 27.89913774 C-41.26470974 20.03657434 -27.96078872 12.22464414 -14.60843223 4.49679399 C-13.55572709 3.81542308 -12.50302195 3.13405218 -11.41841665 2.43203367 C-7.57862459 0.25235893 -4.44304679 -0.00211548 0 0 Z " fill="#155E53" transform="translate(5693.608432233334,0.5032060146331787)"/>
<path d="M0 0 C0 3 0 3 -1.29077148 4.65153503 C-1.89477783 5.24887955 -2.49878418 5.84622406 -3.12109375 6.46166992 C-3.80179932 7.1421489 -4.48250488 7.82262787 -5.18383789 8.52372742 C-5.92754639 9.25195206 -6.67125488 9.9801767 -7.4375 10.73046875 C-8.19216553 11.48088943 -8.94683105 12.23131012 -9.72436523 13.00447083 C-12.14264671 15.40592396 -14.57113771 17.79675349 -17 20.1875 C-18.63870258 21.81116119 -20.2767324 23.43550167 -21.9140625 25.06054688 C-25.93492745 29.04828738 -29.96422965 33.02734819 -34 37 C-34.99 36.67 -35.98 36.34 -37 36 C-32.85899129 31.83412612 -28.71459735 27.67165952 -24.56713867 23.51220703 C-23.15899437 22.09905843 -21.75175193 20.68501052 -20.34545898 19.27001953 C-18.31474997 17.22707299 -16.28073473 15.18746721 -14.24609375 13.1484375 C-13.62600937 12.52319183 -13.00592499 11.89794617 -12.36705017 11.25375366 C-8.40354031 7.28974493 -4.29708037 3.60058221 0 0 Z " fill="#65ECC2" transform="translate(5608,3011)"/>
<path d="M0 0 C0 3 0 3 -1.49609375 4.75390625 C-2.45708984 5.64916016 -2.45708984 5.64916016 -3.4375 6.5625 C-7.00239527 9.91134101 -8.07471249 11.7471249 -8.5625 16.625 C-8.64628906 17.44226562 -8.73007812 18.25953125 -8.81640625 19.1015625 C-8.87699219 19.72804688 -8.93757813 20.35453125 -9 21 C-11 19 -11 19 -11.5 16.4375 C-10.59388639 10.20796893 -6.74188109 5.55254619 -2.125 1.4375 C-1.073125 0.7259375 -1.073125 0.7259375 0 0 Z " fill="#64E3BD" transform="translate(4699,1791)"/>
</svg>
